# xmcd
#
# Track frame offsets: 
#        150
#        19667
#        38047
#        57975
#        84480
#        112172
#        136495
#        154812
#        172267
#        191472
#
# Disc length: 2868 seconds
#
# Revision: 6
# Processed by: cddbd v1.5.2PL0 Copyright (c) Steve Scherf et al.
# Submitted via: ExactAudioCopyFreeDBPlugin 1.0
#
DISCID=860b320a
DTITLE=Sade - Stronger Than Pride
DYEAR=1988
DGENRE=Soul
TTITLE0=Love Is Stronger Than Pride
TTITLE1=Paradise
TTITLE2=Nothing Can Come Between Us
TTITLE3=Haunt Me
TTITLE4=Turn My Back On You
TTITLE5=Keep Looking
TTITLE6=Clean Heart
TTITLE7=Give It Up
TTITLE8=I Never Thought I'd See The Day
TTITLE9=Siempre Hay Esperanza
EXTD=
EXTT0=
EXTT1=
EXTT2=
EXTT3=
EXTT4=
EXTT5=
EXTT6=
EXTT7=
EXTT8=
EXTT9=
PLAYORDER=
